<?xml version="1.0" encoding="utf-8"?>
<!-- Generator: Adobe Illustrator 24.2.1, SVG Export Plug-In . SVG Version: 6.00 Build 0)  -->
<svg version="1.1" id="Layer_1" xmlns="http://www.w3.org/2000/svg" xmlns:xlink="http://www.w3.org/1999/xlink" x="0px" y="0px"
	 viewBox="0 0 200 200" style="enable-background:new 0 0 200 200;" xml:space="preserve">
<style type="text/css">
	.st0{fill:url(#SVGID_1_);}
	.st1{opacity:0.5;fill:url(#SVGID_2_);enable-background:new    ;}
	.st2{opacity:0.5;fill:url(#SVGID_3_);enable-background:new    ;}
	.st3{opacity:0.5;fill:url(#SVGID_4_);enable-background:new    ;}
	.st4{fill:#B6EC44;}
	.st5{fill:#F0EFF4;}
	.st6{fill:#6C38B8;}
	.st7{fill:#FFFFFF;}
	.st8{fill:#10E2E4;}
	.st9{fill:#F1EEF4;}
	.st10{opacity:0.5;fill:url(#SVGID_5_);enable-background:new    ;}
	.st11{opacity:0.5;fill:url(#SVGID_6_);enable-background:new    ;}
	.st12{opacity:0.5;fill:url(#SVGID_7_);enable-background:new    ;}
	.st13{opacity:0.5;fill:url(#SVGID_8_);enable-background:new    ;}
	.st14{opacity:0.5;fill:url(#SVGID_9_);enable-background:new    ;}
	.st15{opacity:0.5;fill:url(#SVGID_10_);enable-background:new    ;}
	.st16{opacity:0.5;fill:url(#SVGID_11_);enable-background:new    ;}
	.st17{opacity:0.5;fill:url(#SVGID_12_);enable-background:new    ;}
	.st18{opacity:0.5;fill:url(#SVGID_13_);enable-background:new    ;}
	.st19{opacity:0.5;fill:url(#SVGID_14_);enable-background:new    ;}
	.st20{opacity:0.5;fill:url(#SVGID_15_);enable-background:new    ;}
	.st21{opacity:0.5;fill:url(#SVGID_16_);enable-background:new    ;}
	.st22{opacity:0.5;fill:url(#SVGID_17_);enable-background:new    ;}
	.st23{fill:#4C238E;}
	.st24{opacity:0.1;enable-background:new    ;}
	.st25{fill:#FBD783;}
	.st26{fill:#816AD6;}
	.st27{fill:#FAF1F3;}
	.st28{fill:#3F216B;}
	.st29{fill:#2A195B;}
	.st30{fill:#D8D8D8;}
	.st31{fill:#400491;}
</style>
<linearGradient id="SVGID_1_" gradientUnits="userSpaceOnUse" x1="75.1989" y1="157.309" x2="125.5669" y2="36.986" gradientTransform="matrix(1 0 0 -1 0 202)">
	<stop  offset="0" style="stop-color:#10E2E4"/>
	<stop  offset="0.357" style="stop-color:#33A1D3"/>
	<stop  offset="0.796" style="stop-color:#5C56C0"/>
	<stop  offset="1" style="stop-color:#6C38B8"/>
</linearGradient>
<path class="st0" d="M165.4,156.1c-15.9,13.7-39.2-9.4-67.7,6.6c-26.3,14.7-59.4,4-57.6-14.9c0.2-1.7,0.6-3.4,1.3-5
	c4-10-2.9-15.6-16.7-28.4c-9.4-8.8-12.4-22.9-9.2-33.1c3.1-9.6,11.7-15.8,25.9-11c8.3,2.9,17.2,3.2,25.7,0.8
	c13.6-4,24.3-14.7,30.6-26.5c7.2-13.6,28.6-17.8,45-10.9c6.1,2.4,11.4,6.7,15.1,12.1c13,19.7-9.2,27.4-12.8,46.5
	c-0.2,1.1-0.4,2.3-0.4,3.5c-0.1,22.4,15.5,36.1,21.8,46.4C169.6,147.4,170.4,151.8,165.4,156.1L165.4,156.1z"/>
<linearGradient id="SVGID_2_" gradientUnits="userSpaceOnUse" x1="74.0999" y1="130.4291" x2="135.6619" y2="59.5391" gradientTransform="matrix(1 0 0 -1 0 202)">
	<stop  offset="0" style="stop-color:#FFFFFF"/>
	<stop  offset="9.400000e-02" style="stop-color:#E0E0E0"/>
	<stop  offset="0.35" style="stop-color:#919191"/>
	<stop  offset="0.577" style="stop-color:#535353"/>
	<stop  offset="0.768" style="stop-color:#262626"/>
	<stop  offset="0.915" style="stop-color:#0A0A0A"/>
	<stop  offset="1" style="stop-color:#000000"/>
</linearGradient>
<path class="st1" d="M165.4,156.1c-15.9,13.7-39.2-9.4-67.7,6.6c-28.5,16-65.1,2-56.3-19.9c4-10-2.9-15.6-16.7-28.4
	c-9.4-8.8-12.4-22.9-9.2-33.1c32.7,17.8,88.3,26.6,93.3-10.4c3.4-25.3,17.9-35.9,33.9-37.1c6.1,2.4,11.4,6.7,15.1,12.1
	c13.8,20.8-11.9,28.3-13.3,49.9C144.4,129.6,180.2,143.4,165.4,156.1L165.4,156.1z"/>
<linearGradient id="SVGID_3_" gradientUnits="userSpaceOnUse" x1="84.5739" y1="134.542" x2="99.1869" y2="24.165" gradientTransform="matrix(1 0 0 -1 0 202)">
	<stop  offset="0" style="stop-color:#FFFFFF"/>
	<stop  offset="9.400000e-02" style="stop-color:#E0E0E0"/>
	<stop  offset="0.35" style="stop-color:#919191"/>
	<stop  offset="0.577" style="stop-color:#535353"/>
	<stop  offset="0.768" style="stop-color:#262626"/>
	<stop  offset="0.915" style="stop-color:#0A0A0A"/>
	<stop  offset="1" style="stop-color:#000000"/>
</linearGradient>
<path class="st2" d="M165.4,156.1c-15.9,13.7-39.2-9.4-67.7,6.6c-28.5,16-65.1,2-56.3-19.9c4-10-2.9-15.6-16.7-28.4
	c-9.4-8.8-12.4-22.9-9.2-33.1c3.1-9.6,11.7-15.8,25.9-11c8.3,2.9,17.2,3.2,25.7,0.8c23.4,17.9,37.9-7.6,69.1,15.1
	c3,2.2,5.9,4.2,8.8,6.1c-0.2,1.1-0.4,2.3-0.4,3.5C144.4,129.6,180.2,143.4,165.4,156.1L165.4,156.1z"/>
<linearGradient id="SVGID_4_" gradientUnits="userSpaceOnUse" x1="101.4531" y1="76.438" x2="105.8061" y2="42.237" gradientTransform="matrix(1 0 0 -1 0 202)">
	<stop  offset="0" style="stop-color:#FFFFFF"/>
	<stop  offset="9.400000e-02" style="stop-color:#E0E0E0"/>
	<stop  offset="0.35" style="stop-color:#919191"/>
	<stop  offset="0.577" style="stop-color:#535353"/>
	<stop  offset="0.768" style="stop-color:#262626"/>
	<stop  offset="0.915" style="stop-color:#0A0A0A"/>
	<stop  offset="1" style="stop-color:#000000"/>
</linearGradient>
<path class="st3" d="M165.4,156.1c-15.9,13.7-39.2-9.4-67.7,6.6c-26.3,14.7-59.4,4-57.6-14.9c17.4-4.6,31.2-13.3,44.9-15.2
	c23.5-3.3,19.9,17,64.8,10.8c5.5-0.8,11-1.2,16.5-1.3C169.6,147.4,170.4,151.8,165.4,156.1L165.4,156.1z"/>
<path class="st4" d="M48.9,134.7c-1.1,0.8-1.9,1.9-2.4,3.2c-0.3-1.6-0.7-3.2-1.4-4.7c3.5-2.2,6.9,0,8.7-2.1c1-1.2-2.5-5.5-6.2-3.1
	c-1.5,1.1-2.5,2.7-2.8,4.5c-0.6-1.3-1.2-2.6-1.9-4c2.6-2.5,5.9-1.3,7-3.4c0.6-1.2-3.2-4.3-5.8-1.5c-1,1.1-1.6,2.6-1.6,4.1
	c-0.5-1-1-2-1.6-3.1c0.6-3.4,3.7-4.8,3.1-7.2c-0.4-1.4-5.7-1.1-5.9,3.1c0,1.7,0.7,3.4,1.9,4.7c0.5,1.1,1,2.1,1.5,3.1
	c-0.7-0.7-1.5-1.2-2.4-1.5c-3.7-1-5.4,3.6-4.3,4.3c2,1.3,4.2-1.5,7.8-0.6c0.7,1.4,1.4,2.9,1.9,4.3c-1.2-1.4-2.9-2.4-4.7-2.7
	c-4.3-0.4-5.3,5.1-3.9,5.7c2.6,1,4.5-2.7,8.9-2.3c0.7,1.9,0.9,4,0.7,6.1c-0.7-1.7-2.1-3.1-3.8-3.9c-3.9-1.4-6.1,3.4-5,4.3
	c2.1,1.6,4.8-1.4,8.7,0.1c-0.1,0.8-0.4,1.6-0.7,2.4c-0.5,1.4-0.9,2.7-1.3,4.2c-0.5-1.3-1.5-2.3-2.7-2.9c-3.2-1.3-5.3,2.5-4.3,3.3
	c1.6,1.4,3.9-0.8,6.9,0.3c-0.4,1.9-0.6,3.9-0.7,5.8c-0.4-0.6-1-1.2-1.7-1.5c-2.4-1-4.1,2-3.4,2.5c1.2,1,2.9-0.4,5,0.1
	c0,1.1,0.1,1.8,0.1,1.8c0,0.3,0.2,0.5,0.5,0.5c0,0,0,0,0.1,0c0.3,0,0.5-0.3,0.5-0.6c0,0,0,0,0,0c-0.1-1.2-0.1-2.3,0-3.5
	c2.4-1,4.2,0.8,5.5-0.3c0.7-0.6-0.9-3.6-3.3-2.6c-1,0.5-1.7,1.3-2.2,2.3c0.2-2.2,0.5-4.5,1.1-6.6c3.2-1.4,5.5,1,7.2-0.4
	c0.9-0.8-1.2-4.7-4.3-3.3c-1.1,0.5-1.9,1.3-2.5,2.4c0.1-0.4,0.3-0.8,0.4-1.2c0.6-1.7,0.9-3.4,0.9-5.2c3.3-1.9,6.4,0.1,8.1-1.8
	C55.6,136.5,52.3,132.4,48.9,134.7z"/>
<path class="st5" d="M42.2,152.5c-0.4,0.8-0.6,1.7-0.4,2.6c-0.9-1.6-1.7-3.3-2.3-5.1c1.5-2.4,4.2-1.9,4.7-3.6c0.3-1-3-2.6-4.5-0.3
	c-0.5,0.8-0.7,1.8-0.6,2.8c-0.1-0.3-0.2-0.7-0.3-1c-0.3-1.4-1-2.8-1.8-4c1.3-2.9,4.5-3,4.7-5.1c0.1-1.2-4.1-2.5-5.4,0.7
	c-0.4,1.1-0.4,2.4-0.1,3.5c-1-1-2-1.9-3.2-2.6c1.4-3.1,4.7-3.2,5-5.4c0.1-1.2-4.3-2.6-5.7,0.7c-0.5,1.4-0.4,3,0.1,4.4
	c-1-0.6-2.1-1.2-3.2-1.8c0.6-2.9,3.5-3.6,3.2-5.6c-0.1-1.1-4.1-1.4-4.7,1.7c-0.2,1.2,0.1,2.5,0.8,3.6c-0.8-0.4-1.7-0.9-2.5-1.4
	c-1.2-2.6,0.3-5-1.2-6.3c-0.9-0.8-4.4,1.9-2.6,4.8c0.8,1.2,2.1,2,3.5,2.3c0.8,0.5,1.7,0.9,2.5,1.4c-0.8-0.2-1.6-0.1-2.3,0.1
	c-3,1-2,4.9-0.9,4.9c2-0.1,2.2-3,5-4c1.1,0.6,2.3,1.3,3.3,2.1c-1.5-0.4-3.1-0.3-4.5,0.4c-3.1,1.8-1.3,6,0,5.7c2.2-0.5,1.8-4,5-5.7
	c1.4,1,2.5,2.3,3.3,3.8c-1.3-0.8-2.9-1.2-4.4-0.9c-3.3,0.9-2.6,5.2-1.4,5.2c2.2,0.1,2.7-3.2,6-4c0.3,0.6,0.5,1.3,0.7,1.9
	c0.3,1.2,0.6,2.3,1.1,3.4c-1-0.6-2.1-0.9-3.2-0.7c-2.8,0.6-2.4,4.2-1.4,4.3c1.7,0.2,2.3-2.4,4.9-3c0.6,1.5,1.4,2.9,2.2,4.3
	c-0.6-0.3-1.2-0.3-1.8-0.2c-2.1,0.4-1.9,3.2-1.1,3.3c1.3,0.1,1.7-1.6,3.5-2.2c0.5,0.7,0.9,1.2,0.9,1.2c0.1,0.2,0.4,0.2,0.6,0.1
	c0,0,0,0,0,0c0.2-0.2,0.2-0.4,0.1-0.6c0,0,0,0,0,0c-0.6-0.8-1.1-1.6-1.6-2.4c1.2-1.8,3.2-1.4,3.6-2.8
	C45.9,152,43.4,150.7,42.2,152.5L42.2,152.5z"/>
<path class="st6" d="M43.6,158.6c0,0,0.1-11.2-4.9-14.8s-11.8-3.5-11.8-3.5s3.5,7.6,6.1,8.8S43.2,156.3,43.6,158.6z"/>
<path class="st7" d="M43.2,158.7c-0.6-1.3-1.3-2.6-2-3.9c-0.7-1.3-1.4-2.5-2.3-3.7c-0.8-1.2-1.7-2.4-2.6-3.5c-0.9-1.1-2-2.1-3.2-2.9
	c-0.1,0-0.1-0.1,0-0.2c0,0,0,0,0,0c0-0.1,0.1-0.1,0.2,0c1.2,0.8,2.4,1.8,3.4,2.9c1,1.1,1.9,2.2,2.7,3.5c0.9,1.2,1.6,2.4,2.4,3.7
	c0.7,1.3,1.5,2.6,2.1,3.9c0.1,0.2,0,0.4-0.2,0.5C43.6,159,43.3,158.9,43.2,158.7L43.2,158.7L43.2,158.7z"/>
<path class="st8" d="M44.2,159.2c0,0-5.1-6.5-9.6-6.3c-3.1,0.3-6,1.5-8.4,3.3c0,0,5.5,2.8,7.5,2.3S43,158.1,44.2,159.2z"/>
<path class="st7" d="M44.1,159.5c-0.9-0.5-1.9-0.9-2.9-1.3c-1-0.4-2-0.8-3-1.1c-1-0.3-2-0.6-3.1-0.8c-1-0.2-2.1-0.3-3.2-0.2
	c0,0-0.1,0-0.1-0.1c0,0,0,0,0,0c0,0,0-0.1,0.1-0.1c1.1-0.1,2.2-0.1,3.2,0.1c1.1,0.2,2.1,0.4,3.2,0.7c1,0.3,2.1,0.7,3.1,1.1
	c1,0.4,2,0.8,3,1.3c0.1,0.1,0.2,0.2,0.1,0.4C44.4,159.5,44.2,159.6,44.1,159.5L44.1,159.5L44.1,159.5z"/>
<path class="st9" d="M178.5,137.9c-0.8-1.5-6.9-4.7-13.7,2.5c-0.2,0.2-0.5,0.4-0.7,0.6c0.7-1.4,1.3-3,1.9-4.6c0,0,0,0,0,0
	c0.1-0.1,0.2-0.3,0.3-0.4c1.1-0.9,4.2-3,6.6-2.2c4.4,1.4,6.2,0,5.7-0.9c-0.7-1.3-5.8-4-11.5,2.1c-0.3,0.3-0.6,0.5-0.9,0.8
	c0.3-0.9,0.7-1.9,1-2.9c0.1,0.1,0.1,0.2,0.1,0.2c0-0.1-0.1-0.2-0.1-0.3c0.3-0.9,0.6-1.8,0.8-2.7c0,0,3.6-2.9,6.1-2.1
	c3.7,1.2,5.2,0,4.8-0.7c-0.5-1-4.2-3-8.5,0.7c-0.8,0.4-1.6,1-2.2,1.7c0.2-0.8,0.4-1.6,0.6-2.5c0,0.1,0.1,0.1,0.1,0.1
	c0,0,0-0.1,0-0.1c0.3-1.2,0.5-2.4,0.8-3.6c0.7-0.6,2.6-1.8,4.1-1.3c3.3,1,4,0.3,3.6-0.5c-0.4-0.8-3.7-2.5-7.3,1.3
	c-0.1,0.1-0.2,0.2-0.3,0.3c0.1-0.6,0.2-1.2,0.3-1.9l0,0l0,0c0.2-1.1,0.3-2.1,0.4-3.1c0.6-0.4,2-1.5,3.2-1.1c2.7,0.8,3.2,0.3,2.8-0.4
	c-0.3-0.6-2.9-2-5.7,1c-0.1,0.1-0.2,0.2-0.3,0.3c0.1-1.3,0.1-2.5,0.1-3.8c0.2-0.8,0.6-2.3,1.7-2.7c2.1-0.9,2.3-2,1.8-2.2
	c-0.6-0.2-2.6,0.2-3.4,2.8c-0.3,0.7-0.5,1.3-0.7,2c-1.6-3.6-4.3-3.2-4.8-2.8c-0.4,0.3,0.2,1.2,2.5,1.4c0.8,0.2,1.6,0.7,2.1,1.4
	c0.1,0.2,0.2,0.4,0.3,0.6c0,1.8-0.1,3.7-0.4,5.5c-2-4.8-5.6-4.3-6.3-3.7c-0.5,0.4,0.2,1.6,3.1,1.8c1.2,0.2,2.2,1,2.8,2
	c0.1,0.2,0.2,0.3,0.2,0.5c-0.2,1.7-0.6,3.5-1,5.3c-2.6-6.8-7.6-6.2-8.5-5.4c-0.7,0.6,0.3,2.1,4.2,2.4c1.7,0.1,3.1,1.7,3.9,2.9
	c0.1,0.2,0.2,0.4,0.3,0.6c-0.4,1.8-0.9,3.6-1.4,5.3c-3.1-8.3-9.1-7.5-10.2-6.6c-0.8,0.7,0.4,2.5,5,2.8c2.1,0.1,3.8,2.2,4.8,3.6
	c0.1,0.2,0.2,0.4,0.3,0.6c-0.5,1.5-1,2.9-1.5,4.3c-0.2-0.6-0.4-1.1-0.7-1.6c-3.8-9.2-10.6-8.3-11.9-7.2c-0.9,0.8,0.5,3,5.9,3.3
	c3,0.2,5.5,3.8,6.4,5.2c0.1,0.2,0.1,0.4,0.2,0.6c0,0,0,0,0,0c-0.9,2.6-2.1,5-3.6,7.3c-0.1,0.1-0.1,0.3,0.1,0.4
	c0.1,0.1,0.3,0.1,0.4-0.1l0,0c0.6-0.9,1.2-1.9,1.6-2.9c0.1-0.1,0.2-0.2,0.3-0.3c1.3-1,4.9-3.5,7.8-2.6
	C177,140.5,179.1,138.9,178.5,137.9z"/>
<path class="st8" d="M161.6,146c0,0,5.9-9.2,3.7-14.8s-7.9-9.1-7.9-9.1s-1,8.1,0.4,10.4S162.5,144,161.6,146z"/>
<path class="st7" d="M161.3,146c0.2-1.4,0.3-2.8,0.4-4.2c0.1-1.4,0.1-2.8,0.1-4.3c0-1.4-0.1-2.8-0.3-4.2c-0.2-1.4-0.6-2.8-1.1-4.1
	c0-0.1,0-0.1,0.1-0.2c0.1,0,0.1,0,0.2,0.1c0.6,1.3,1,2.7,1.3,4.1c0.3,1.4,0.4,2.9,0.5,4.3c0.1,1.4,0.1,2.9,0,4.3
	c0,1.4-0.1,2.9-0.3,4.3c0,0.2-0.2,0.4-0.4,0.3C161.4,146.4,161.2,146.2,161.3,146L161.3,146L161.3,146z"/>
<path class="st4" d="M172.1,150.3c-3-1-4.1-2.4-4.3-4s0.4-2.1,0.1-3.4s-1.8-2-1.4-4.7s4.2-3.9,4.2-3.4s-1.9,2-1.5,3.2s0,1.7,0.7,1.2
	s-0.1-1,0.6-2.3s3.7-2.3,4.6-2s-1.2,0.8-1.3,2.4s0.2,2.2,0.8,1.8s0.9-4.3,2.7-3.8s3,1.5,2.2,1.9s-2.3,0.8-2,1.5s0.9,0.6,1.6-0.2
	s0.9-1.8,1.6-1.6s5.5,2.5,4.9,3.8s-2.8,4.6-3.5,4.7s-1-1.9-2-1.8s-1.7,0.7,0,1.7s2.5,1.9,0.4,2.5c-1.5,0.3-3.1-0.3-4-1.6
	c-0.7-0.8-2-0.6-1.3,0.1s3.6,2.2,3.1,2.7S174.3,151,172.1,150.3L172.1,150.3z"/>
<path class="st7" d="M161.3,146.4C161.3,146.4,161.2,146.3,161.3,146.4c-0.1-0.2-0.1-0.3,0-0.4c0,0,0,0,0,0c7-4.7,15.2-5.3,21.6-5.3
	c0.1,0,0.3,0.1,0.3,0.3c0,0.1-0.1,0.3-0.3,0.3l0,0c-6.3,0-14.5,0.6-21.4,5.2C161.5,146.5,161.4,146.4,161.3,146.4L161.3,146.4z"/>
<path class="st4" d="M46.3,68.8l-9.8-0.3c-1,0-1.9-0.7-2-1.8v-4.1c0.1-1,0.9-1.7,1.9-1.6c0,0,0.1,0,0.1,0l9.8,0.4
	c1,0,1.8,0.8,1.9,1.8v4C48.2,68.1,47.3,68.8,46.3,68.8C46.4,68.8,46.3,68.8,46.3,68.8z"/>
<path class="st6" d="M69.3,64.8l-17.7-0.7c-0.3,0-0.6-0.3-0.6-0.6v-1.3c0-0.3,0.3-0.6,0.6-0.5c0,0,0,0,0,0l17.7,0.8
	c0.3,0,0.6,0.3,0.6,0.6v1.3C69.9,64.5,69.7,64.8,69.3,64.8C69.4,64.8,69.4,64.8,69.3,64.8z M87.9,63.7V65c0,0.3-0.2,0.5-0.5,0.5
	c0,0,0,0,0,0l-4.8-0.2c-0.3,0-0.5-0.3-0.6-0.6v-1.2c0-0.3,0.2-0.5,0.5-0.5c0,0,0,0,0,0l4.8,0.2C87.7,63.2,87.9,63.4,87.9,63.7z
	 M95.7,64.1v1.2c0,0.3-0.2,0.5-0.5,0.5c0,0,0,0,0,0l-4.6-0.2c-0.3,0-0.5-0.3-0.5-0.6v-1.2c0-0.3,0.2-0.5,0.5-0.5c0,0,0,0,0,0
	l4.6,0.2C95.5,63.5,95.7,63.8,95.7,64.1z M103.2,64.4v1.2c0,0.3-0.2,0.5-0.5,0.5c0,0,0,0,0,0l-4.5-0.2c-0.3,0-0.5-0.2-0.5-0.5v-1.2
	c0-0.3,0.2-0.5,0.5-0.5c0,0,0,0,0,0l4.5,0.2C103,63.9,103.2,64.1,103.2,64.4z M110.4,64.7v1.2c0,0.3-0.2,0.5-0.5,0.5c0,0,0,0,0,0
	l-4.3-0.2c-0.3,0-0.5-0.2-0.5-0.5v-1.2c0-0.3,0.2-0.5,0.5-0.5c0,0,0,0,0,0l4.3,0.2C110.2,64.2,110.4,64.4,110.4,64.7z M108.5,74.9
	v15c0,0.8-0.7,1.5-1.5,1.5l-40.1,0.7l-5.8,0.1l-9.4,0.2l-3.4,0.1l-11.8,0.2c-1,0.1-1.9-0.6-2-1.7c0,0,0,0,0,0V73.5
	c0.1-1,1-1.8,2-1.7c0,0,0,0,0,0l35.1,0.8l35.4,0.8C107.9,73.4,108.5,74.1,108.5,74.9z M57.9,96.5V115c0,0.1,0,0.2,0,0.2
	c-0.2,0.9-0.9,1.5-1.8,1.6l-19.3,1.3c-1,0.2-1.9-0.5-2-1.4c0-0.1,0-0.1,0-0.2V97.1c0.1-1.1,1-1.8,2-1.8L48,95.1l3.6-0.1l4.4-0.1
	C57,94.8,57.8,95.5,57.9,96.5C57.9,96.5,57.9,96.5,57.9,96.5z M84.6,95.8v17.5c0,0.9-0.8,1.6-1.7,1.7l-12.2,0.8l-5,0.3
	c-0.9,0.1-1.7-0.5-1.8-1.4c0,0,0-0.1,0-0.1V96.3c0-0.7,0.5-1.3,1.2-1.6c0.2-0.1,0.4-0.1,0.6-0.1l17.2-0.4
	C83.8,94.2,84.5,94.9,84.6,95.8C84.6,95.8,84.6,95.8,84.6,95.8z"/>
<path class="st8" d="M108.5,95.1v16.6c0,0.8-0.7,1.5-1.5,1.6l-15.4,1.1c-0.8,0.1-1.5-0.5-1.6-1.3c0-0.1,0-0.1,0-0.2V95.6
	c0-0.9,0.7-1.6,1.6-1.6l15.4-0.4C107.8,93.6,108.5,94.3,108.5,95.1C108.5,95.1,108.5,95.1,108.5,95.1z"/>
<path class="st7" d="M102.7,88.8L80.6,89c-0.9,0-1.7-0.7-1.7-1.6c0,0,0,0,0,0V77.3c0-0.9,0.8-1.6,1.7-1.6c0,0,0,0,0,0l22.1,0.4
	c0.9,0,1.6,0.7,1.6,1.6v9.6C104.3,88.1,103.6,88.8,102.7,88.8z M48.2,89.4l-6.7,0.1c-0.3,0-0.6-0.2-0.7-0.6c0,0,0,0,0,0v-1.4
	c0-0.3,0.3-0.6,0.7-0.6l6.7,0c0.3,0,0.6,0.2,0.7,0.6c0,0,0,0,0,0v1.4C48.8,89.2,48.6,89.5,48.2,89.4z"/>
<path class="st8" d="M61.1,89.3l-6.4,0.1c-0.3,0-0.6-0.2-0.6-0.6c0,0,0,0,0,0v-1.4c0-0.3,0.3-0.6,0.6-0.6l6.4,0
	c0.3,0,0.6,0.2,0.6,0.6c0,0,0,0,0,0v1.3C61.7,89,61.4,89.3,61.1,89.3z"/>
<path class="st6" d="M110.7,55.9v1.2c0,1.1-0.9,2.1-2,2.1c-0.1,0-0.1,0-0.2,0l-26.9-1.5l-43.9-2.4c-1.6,0-2.9-1.2-3-2.8v-1.4
	c0.1-1.4,1.4-2.5,2.8-2.4c0.1,0,0.1,0,0.2,0l54,3.7l16.8,1.1C109.7,53.7,110.7,54.7,110.7,55.9z"/>
<path class="st7" d="M107.9,56.8L107.9,56.8l-0.3-0.5c0.3-0.3,0.4-0.7,0.3-1.1c0-0.1-0.1-0.2-0.1-0.3c-0.3-0.5-1-0.7-1.6-0.4
	c-0.2,0.1-0.4,0.4-0.5,0.6c-0.1,0.3,0,0.6,0.2,0.9c0.3,0.5,0.8,0.7,1.4,0.5l0.3,0.4l0,0.1l0.4,0.6l0.3-0.2L107.9,56.8z M107.2,56.1
	c-0.4,0.2-0.8,0.1-1.1-0.3c-0.1-0.2-0.2-0.5-0.1-0.7c0-0.1,0.1-0.3,0.3-0.3c0.4-0.2,0.8-0.1,1.1,0.3c0,0,0,0,0,0c0,0,0,0.1,0.1,0.1
	C107.6,55.6,107.5,55.9,107.2,56.1z"/>
<path class="st7" d="M107.8,56.8l-0.3,0.2c0,0-0.1,0.1,0,0.1c0,0,0,0,0,0l0.8,1.2c0,0,0.1,0.1,0.1,0l0.3-0.2c0,0,0.1-0.1,0-0.1
	c0,0,0,0,0,0l-0.8-1.2C107.9,56.8,107.9,56.8,107.8,56.8L107.8,56.8z"/>
<linearGradient id="SVGID_5_" gradientUnits="userSpaceOnUse" x1="34.719" y1="95.5048" x2="57.9211" y2="95.5048" gradientTransform="matrix(1 0 0 -1 0 202)">
	<stop  offset="0" style="stop-color:#FFFFFF"/>
	<stop  offset="0.12" style="stop-color:#E8E8E8"/>
	<stop  offset="0.372" style="stop-color:#ABABAB"/>
	<stop  offset="0.733" style="stop-color:#4B4B4B"/>
	<stop  offset="1" style="stop-color:#000000"/>
</linearGradient>
<path class="st10" d="M57.9,96.5V115c0,0.1,0,0.2,0,0.2c-0.2,0.9-0.9,1.5-1.8,1.6l-19.3,1.3c-1,0.2-1.9-0.5-2-1.4c0-0.1,0-0.1,0-0.2
	V97.1c0.1-1.1,1-1.8,2-1.8L48,95.1l3.6-0.1l4.4-0.1C57,94.8,57.8,95.5,57.9,96.5C57.9,96.5,57.9,96.5,57.9,96.5z"/>
<linearGradient id="SVGID_6_" gradientUnits="userSpaceOnUse" x1="63.8689" y1="96.8135" x2="84.5597" y2="96.8135" gradientTransform="matrix(1 0 0 -1 0 202)">
	<stop  offset="0" style="stop-color:#FFFFFF"/>
	<stop  offset="0.12" style="stop-color:#E8E8E8"/>
	<stop  offset="0.372" style="stop-color:#ABABAB"/>
	<stop  offset="0.733" style="stop-color:#4B4B4B"/>
	<stop  offset="1" style="stop-color:#000000"/>
</linearGradient>
<path class="st11" d="M84.6,95.8v17.5c0,0.9-0.8,1.6-1.7,1.7l-12.2,0.8l-5,0.3c-0.9,0.1-1.7-0.5-1.8-1.4c0,0,0-0.1,0-0.1V96.3
	c0-0.7,0.5-1.3,1.2-1.6c0.2-0.1,0.4-0.1,0.6-0.1l17.2-0.4C83.8,94.2,84.5,94.9,84.6,95.8C84.6,95.8,84.6,95.8,84.6,95.8z"/>
<linearGradient id="SVGID_7_" gradientUnits="userSpaceOnUse" x1="82.0494" y1="137.7806" x2="87.9259" y2="137.7806" gradientTransform="matrix(1 0 0 -1 0 202)">
	<stop  offset="0" style="stop-color:#FFFFFF"/>
	<stop  offset="0.12" style="stop-color:#E8E8E8"/>
	<stop  offset="0.372" style="stop-color:#ABABAB"/>
	<stop  offset="0.733" style="stop-color:#4B4B4B"/>
	<stop  offset="1" style="stop-color:#000000"/>
</linearGradient>
<path class="st12" d="M82.6,65.3c-0.3,0-0.5-0.3-0.6-0.6v-1.2c0-0.3,0.2-0.5,0.5-0.5c0,0,0,0,0,0l4.8,0.2c0.3,0,0.5,0.2,0.5,0.5V65
	c0,0.3-0.2,0.5-0.5,0.5c0,0,0,0,0,0L82.6,65.3z"/>
<linearGradient id="SVGID_8_" gradientUnits="userSpaceOnUse" x1="90.0008" y1="137.4539" x2="95.6885" y2="137.4539" gradientTransform="matrix(1 0 0 -1 0 202)">
	<stop  offset="0" style="stop-color:#FFFFFF"/>
	<stop  offset="0.12" style="stop-color:#E8E8E8"/>
	<stop  offset="0.372" style="stop-color:#ABABAB"/>
	<stop  offset="0.733" style="stop-color:#4B4B4B"/>
	<stop  offset="1" style="stop-color:#000000"/>
</linearGradient>
<path class="st13" d="M90.5,65.6c-0.3,0-0.5-0.3-0.5-0.6v-1.2c0-0.3,0.2-0.5,0.5-0.5c0,0,0,0,0,0l4.6,0.2c0.3,0,0.5,0.2,0.5,0.5v1.2
	c0,0.3-0.2,0.5-0.5,0.5c0,0,0,0,0,0L90.5,65.6z"/>
<linearGradient id="SVGID_9_" gradientUnits="userSpaceOnUse" x1="97.6909" y1="137.1353" x2="103.19" y2="137.1353" gradientTransform="matrix(1 0 0 -1 0 202)">
	<stop  offset="0" style="stop-color:#FFFFFF"/>
	<stop  offset="0.12" style="stop-color:#E8E8E8"/>
	<stop  offset="0.372" style="stop-color:#ABABAB"/>
	<stop  offset="0.733" style="stop-color:#4B4B4B"/>
	<stop  offset="1" style="stop-color:#000000"/>
</linearGradient>
<path class="st14" d="M98.2,65.9c-0.3,0-0.5-0.2-0.5-0.5v-1.2c0-0.3,0.2-0.5,0.5-0.5c0,0,0,0,0,0l4.5,0.2c0.3,0,0.5,0.2,0.5,0.5v1.2
	c0,0.3-0.2,0.5-0.5,0.5c0,0,0,0,0,0L98.2,65.9z"/>
<linearGradient id="SVGID_10_" gradientUnits="userSpaceOnUse" x1="34.5159" y1="119.3485" x2="108.5295" y2="119.3485" gradientTransform="matrix(1 0 0 -1 0 202)">
	<stop  offset="0" style="stop-color:#FFFFFF"/>
	<stop  offset="0.12" style="stop-color:#E8E8E8"/>
	<stop  offset="0.372" style="stop-color:#ABABAB"/>
	<stop  offset="0.733" style="stop-color:#4B4B4B"/>
	<stop  offset="1" style="stop-color:#000000"/>
</linearGradient>
<path class="st15" d="M108.5,74.9v15c0,0.8-0.7,1.5-1.5,1.5l-40.1,0.7l-5.8,0.1l-9.4,0.2l-3.4,0.1l-11.8,0.2c-1,0.1-1.9-0.6-2-1.7
	c0,0,0,0,0,0v-9.1c2.1,0,4.2,0.1,6.3,0.3c3.1,0.3,6.3,0.4,9.4,0.4c1,0,1.9,0,2.8-0.1h0c2.8-0.2,5.5-0.7,8.2-1.5
	c2.9-0.8,5.6-2.4,7.8-4.6c1-1.2,1.9-2.5,2.6-3.9l35.4,0.8C107.9,73.4,108.5,74.1,108.5,74.9z"/>
<linearGradient id="SVGID_11_" gradientUnits="userSpaceOnUse" x1="90.0008" y1="97.9839" x2="108.5295" y2="97.9839" gradientTransform="matrix(1 0 0 -1 0 202)">
	<stop  offset="0" style="stop-color:#FFFFFF"/>
	<stop  offset="0.12" style="stop-color:#E8E8E8"/>
	<stop  offset="0.372" style="stop-color:#ABABAB"/>
	<stop  offset="0.733" style="stop-color:#4B4B4B"/>
	<stop  offset="1" style="stop-color:#000000"/>
</linearGradient>
<path class="st16" d="M108.5,95.1v16.6c0,0.8-0.7,1.5-1.5,1.6l-15.4,1.1c-0.8,0.1-1.5-0.5-1.6-1.3c0-0.1,0-0.1,0-0.2V95.6
	c0-0.9,0.7-1.6,1.6-1.6l15.4-0.4C107.8,93.6,108.5,94.3,108.5,95.1C108.5,95.1,108.5,95.1,108.5,95.1z"/>
<linearGradient id="SVGID_12_" gradientUnits="userSpaceOnUse" x1="105.1342" y1="136.8303" x2="110.4449" y2="136.8303" gradientTransform="matrix(1 0 0 -1 0 202)">
	<stop  offset="0" style="stop-color:#FFFFFF"/>
	<stop  offset="0.12" style="stop-color:#E8E8E8"/>
	<stop  offset="0.372" style="stop-color:#ABABAB"/>
	<stop  offset="0.733" style="stop-color:#4B4B4B"/>
	<stop  offset="1" style="stop-color:#000000"/>
</linearGradient>
<path class="st17" d="M110.4,64.7v1.2c0,0.3-0.2,0.5-0.5,0.5c0,0,0,0,0,0l-4.3-0.2c-0.3,0-0.5-0.2-0.5-0.5v-1.2
	c0-0.3,0.2-0.5,0.5-0.5c0,0,0,0,0,0l4.3,0.2C110.2,64.2,110.4,64.4,110.4,64.7z"/>
<linearGradient id="SVGID_13_" gradientUnits="userSpaceOnUse" x1="81.6142" y1="146.1708" x2="110.7206" y2="146.1708" gradientTransform="matrix(1 0 0 -1 0 202)">
	<stop  offset="0" style="stop-color:#FFFFFF"/>
	<stop  offset="0.12" style="stop-color:#E8E8E8"/>
	<stop  offset="0.372" style="stop-color:#ABABAB"/>
	<stop  offset="0.733" style="stop-color:#4B4B4B"/>
	<stop  offset="1" style="stop-color:#000000"/>
</linearGradient>
<path class="st18" d="M110.7,55.9v1.2c0,1.1-0.9,2.1-2,2.1c-0.1,0-0.1,0-0.2,0l-26.9-1.5c1.4-1.2,2.9-2.2,4.6-3
	c1.8-0.9,3.6-1.7,5.5-2.2l16.8,1.1C109.7,53.7,110.7,54.7,110.7,55.9z"/>
<path class="st6" d="M131.6,64.1H129c0,0,0,0-0.1,0c0,0.1,0,0.2,0,0.3c0,0.1,0,0.2,0,0.3c0,0.2,0,0.4-0.1,0.6
	c-0.3,1.9-2.1,3.1-4,2.8c-1.7-0.3-2.9-1.7-2.9-3.4c0-0.7,0.2-1.4,0.7-2c0.2-0.3,0.5-0.6,0.8-0.8c0,0,0,0-0.1-0.1l-1.5-1.5h0
	l-0.3-0.3h0c-0.2,0.1-0.3,0.3-0.5,0.5c-0.1,0.1-0.2,0.2-0.3,0.3c-0.9,1.1-1.4,2.5-1.4,3.9c0,0.1,0,0.3,0,0.4
	c0.3,3.4,3.2,5.9,6.6,5.7c3-0.2,5.4-2.6,5.6-5.5c0-0.2,0-0.4,0-0.6S131.7,64.3,131.6,64.1L131.6,64.1z"/>
<path class="st8" d="M131.6,64.1H129c0,0,0,0-0.1,0c0-0.3-0.1-0.5-0.2-0.8c-0.5-1.3-1.8-2.1-3.2-2.1c-0.2,0-0.4,0-0.6,0.1
	c-0.5,0.1-1,0.3-1.4,0.6c0,0,0,0-0.1-0.1l-1.5-1.5h0l-0.3-0.3c2.6-2.2,6.4-1.8,8.6,0.8c0.2,0.3,0.4,0.6,0.6,0.9
	c0.2,0.3,0.3,0.6,0.4,0.9C131.5,63,131.6,63.5,131.6,64.1L131.6,64.1z"/>
<path class="st5" d="M132.9,64.6c0,0.3-0.2,0.6-0.5,0.6c0,0,0,0,0,0h-3.4c-0.3,0-0.5-0.3-0.5-0.6c0-0.1,0-0.2,0.1-0.3
	c0.1-0.2,0.3-0.3,0.4-0.3c0,0,0,0,0.1,0h3.4C132.7,64.1,132.9,64.3,132.9,64.6C132.9,64.6,132.9,64.6,132.9,64.6z M123.5,62.6
	c-0.1,0.1-0.2,0.2-0.4,0.2c-0.1,0-0.2,0-0.3-0.1c0,0-0.1,0-0.1-0.1l-2.1-2.1h0l-0.3-0.3c-0.2-0.2-0.2-0.6,0-0.8c0,0,0,0,0,0
	c0.1-0.1,0.3-0.2,0.4-0.2c0.1,0,0.3,0.1,0.4,0.2l0.5,0.6h0l0.3,0.3h0l1.5,1.5c0,0,0,0,0.1,0.1C123.7,62.1,123.7,62.4,123.5,62.6
	L123.5,62.6z"/>
<path class="st6" d="M145.1,66.2L145.1,66.2c-0.1,0.1-0.3,0.3-0.4,0.4c-0.1,0.1-0.3,0.3-0.4,0.4c-1.6,1.1-3.7,0.7-4.8-0.8
	c-0.7-1-0.8-2.3-0.3-3.4c0.2-0.4,0.4-0.7,0.7-1c0.5-0.5,1.2-0.8,1.9-1c0.4-0.1,0.7-0.1,1.1,0c0,0,0-0.1,0-0.1v-2.6
	c-0.4-0.1-0.8-0.1-1.1,0c-1,0.1-1.9,0.4-2.7,0.9c-0.4,0.2-0.7,0.5-1.1,0.8c-0.4,0.4-0.8,0.9-1.1,1.4c-1.6,3-0.5,6.7,2.5,8.3
	c2.2,1.2,4.9,0.9,6.8-0.7c0.1-0.1,0.3-0.3,0.4-0.4s0.3-0.3,0.4-0.4L145.1,66.2z"/>
<path class="st8" d="M148.4,63.9v0.2c0,1.5-0.5,2.9-1.4,4l-1.9-1.9l0,0c0.4-0.6,0.6-1.2,0.6-1.9c0-0.9-0.3-1.8-1-2.5
	c-0.5-0.5-1.2-0.8-1.9-1c0,0,0-0.1,0-0.1v-2.6c1.4,0.1,2.8,0.7,3.8,1.8C147.7,61,148.3,62.4,148.4,63.9L148.4,63.9z"/>
<path class="st5" d="M147.5,69.4c-0.2,0.2-0.6,0.2-0.8,0c0,0,0,0,0,0l-0.5-0.5l-1.9-1.9c0,0,0,0,0,0c-0.2-0.2-0.2-0.6,0.1-0.8
	c0.2-0.2,0.5-0.2,0.7,0l0,0l2.4,2.4C147.7,68.9,147.7,69.2,147.5,69.4C147.5,69.4,147.5,69.4,147.5,69.4z M142.8,57.3v3.4
	c0,0,0,0.1,0,0.1v0c0,0.3-0.3,0.5-0.6,0.5c-0.1,0-0.3,0-0.4-0.2c-0.1-0.1-0.2-0.2-0.2-0.3c0,0,0-0.1,0-0.1v-3.4
	c0-0.3,0.3-0.6,0.6-0.6C142.6,56.8,142.8,57,142.8,57.3z"/>
<path class="st6" d="M163.2,59.3c-1.1-0.9-2.5-1.4-3.9-1.4c-2,0-3.9,1-5.1,2.7c-0.7,1-1.1,2.2-1.1,3.5c0,3.2,2.4,5.8,5.6,6.1
	c0.2,0,0.4,0,0.6,0s0.4,0,0.6,0v-2.7c0,0,0,0,0-0.1c-0.2,0-0.4,0.1-0.6,0.1c-0.2,0-0.4,0-0.6-0.1c-1.9-0.3-3.1-2.1-2.8-4
	c0.3-1.6,1.7-2.9,3.4-2.9h0c0.7,0,1.4,0.2,2,0.6c0.3,0.2,0.6,0.5,0.8,0.8c0,0,0.1,0,0.1-0.1l1.8-1.9
	C163.7,59.8,163.5,59.5,163.2,59.3z"/>
<path class="st8" d="M165.4,64L165.4,64c0,0.5-0.1,1-0.2,1.4c-0.6,2.5-2.8,4.4-5.4,4.7v-2.7c0,0,0,0,0-0.1c1.7-0.3,2.9-1.7,2.9-3.4
	c0-0.4-0.1-0.8-0.2-1.2c-0.1-0.2-0.2-0.4-0.3-0.7c0-0.1-0.1-0.1-0.1-0.2c0,0,0.1,0,0.1-0.1l1.8-1.9C164.9,61.2,165.4,62.6,165.4,64
	L165.4,64z"/>
<path class="st5" d="M159.8,67.5v3.4c0,0.3-0.2,0.6-0.6,0.6c0,0,0,0,0,0c-0.3,0-0.6-0.2-0.6-0.5c0,0,0,0,0,0v-3.4
	c0-0.3,0.3-0.5,0.6-0.5C159.6,66.9,159.8,67.1,159.8,67.5C159.8,67.4,159.8,67.4,159.8,67.5z M164.7,59.2c0,0.2-0.1,0.3-0.2,0.4
	l-0.5,0.5l-1.9,1.9c0,0,0,0-0.1,0.1c0,0,0,0,0,0c-0.2,0.1-0.5,0.1-0.7-0.1c-0.1-0.1-0.2-0.3-0.2-0.4c0-0.1,0-0.1,0-0.2
	c0-0.1,0.1-0.1,0.1-0.2c0,0,0,0,0.1-0.1l1.9-1.9l0.5-0.5c0.2-0.2,0.6-0.2,0.8,0c0,0,0,0,0,0C164.6,58.9,164.7,59,164.7,59.2z"/>
<linearGradient id="SVGID_14_" gradientUnits="userSpaceOnUse" x1="161.1462" y1="140.2451" x2="162.0045" y2="140.2451" gradientTransform="matrix(1 0 0 -1 0 202)">
	<stop  offset="0" style="stop-color:#FFFFFF"/>
	<stop  offset="0.12" style="stop-color:#E8E8E8"/>
	<stop  offset="0.372" style="stop-color:#ABABAB"/>
	<stop  offset="0.733" style="stop-color:#4B4B4B"/>
	<stop  offset="1" style="stop-color:#000000"/>
</linearGradient>
<path class="st19" d="M162,62c-0.2,0.1-0.5,0.1-0.7-0.1c-0.1-0.1-0.2-0.3-0.2-0.4c0-0.1,0-0.1,0-0.2C161.5,61.6,161.7,61.8,162,62z"
	/>
<linearGradient id="SVGID_15_" gradientUnits="userSpaceOnUse" x1="119.4157" y1="136.5159" x2="132.9392" y2="136.5159" gradientTransform="matrix(1 0 0 -1 0 202)">
	<stop  offset="0" style="stop-color:#FFFFFF"/>
	<stop  offset="9.400000e-02" style="stop-color:#E0E0E0"/>
	<stop  offset="0.35" style="stop-color:#919191"/>
	<stop  offset="0.577" style="stop-color:#535353"/>
	<stop  offset="0.768" style="stop-color:#262626"/>
	<stop  offset="0.915" style="stop-color:#0A0A0A"/>
	<stop  offset="1" style="stop-color:#000000"/>
</linearGradient>
<path class="st20" d="M132.9,64.6c0,0.3-0.2,0.6-0.5,0.6c0,0,0,0,0,0h-0.7c-0.3,3.4-3.3,5.8-6.7,5.5c-3-0.3-5.3-2.7-5.5-5.6
	c0-0.1,0-0.3,0-0.4c0-1.4,0.5-2.8,1.4-3.9l-0.2-0.2c0.2-0.1,0.3-0.1,0.5-0.1c0.3-0.1,0.6-0.1,0.8-0.2h0c1.1-0.2,2.3,0.1,3,1
	c-0.5,0.1-1,0.3-1.4,0.6c0.2,0.3,0.1,0.6-0.1,0.8c-0.1,0.1-0.2,0.1-0.3,0.1c-0.1,0-0.2,0-0.3-0.1c-0.4,0.6-0.7,1.3-0.7,2
	c0,1.9,1.5,3.4,3.4,3.4c1.7,0,3.1-1.2,3.4-2.9c-0.3,0-0.5-0.3-0.5-0.6c0-0.1,0-0.2,0.1-0.3c0.2,0,0.3,0,0.5,0c0.3,0,0.7-0.1,0.9-0.3
	c0.5-0.4,1-1,1.4-1.6c0.2,0.5,0.3,1,0.4,1.6h0.7C132.7,64.1,132.9,64.3,132.9,64.6C132.9,64.6,132.9,64.6,132.9,64.6z"/>
<linearGradient id="SVGID_16_" gradientUnits="userSpaceOnUse" x1="136.1499" y1="137.3181" x2="148.3943" y2="137.3181" gradientTransform="matrix(1 0 0 -1 0 202)">
	<stop  offset="0" style="stop-color:#FFFFFF"/>
	<stop  offset="9.400000e-02" style="stop-color:#E0E0E0"/>
	<stop  offset="0.35" style="stop-color:#919191"/>
	<stop  offset="0.577" style="stop-color:#535353"/>
	<stop  offset="0.768" style="stop-color:#262626"/>
	<stop  offset="0.915" style="stop-color:#0A0A0A"/>
	<stop  offset="1" style="stop-color:#000000"/>
</linearGradient>
<path class="st21" d="M147,68.1c0.9-1.1,1.4-2.5,1.4-4c-1.5-1.1-3.2-3.1-5.6-4.3c-0.4-0.2-0.7-0.3-1.1-0.4c-0.9-0.3-1.8-0.4-2.7-0.4
	c-0.4,0.2-0.7,0.5-1.1,0.8c-0.4,0.4-0.8,0.9-1.1,1.4c-1.6,3-0.5,6.7,2.5,8.3c2.2,1.2,4.9,0.9,6.8-0.7l0.5,0.5c0.2,0.2,0.6,0.2,0.8,0
	c0,0,0,0,0,0c0.2-0.2,0.2-0.6,0-0.8c0,0,0,0,0,0L147,68.1z M139.8,66.6c-1-1-1.3-2.5-0.7-3.8c0.2-0.4,0.4-0.7,0.7-1
	c0.5-0.5,1.2-0.8,1.9-1c0,0.1,0.1,0.2,0.2,0.3c0.1,0.1,0.2,0.2,0.4,0.2c0.3,0,0.5-0.2,0.6-0.5v0c0.7,0.1,1.4,0.5,1.9,1
	c0.7,0.7,1,1.6,1,2.5c0,0.7-0.2,1.4-0.6,1.9c-0.2-0.2-0.6-0.2-0.8,0.1c-0.2,0.2-0.2,0.5,0,0.7C142.9,68,141,67.8,139.8,66.6z"/>
<linearGradient id="SVGID_17_" gradientUnits="userSpaceOnUse" x1="153.1363" y1="135.3173" x2="165.3826" y2="135.3173" gradientTransform="matrix(1 0 0 -1 0 202)">
	<stop  offset="0" style="stop-color:#FFFFFF"/>
	<stop  offset="9.400000e-02" style="stop-color:#E0E0E0"/>
	<stop  offset="0.35" style="stop-color:#919191"/>
	<stop  offset="0.577" style="stop-color:#535353"/>
	<stop  offset="0.768" style="stop-color:#262626"/>
	<stop  offset="0.915" style="stop-color:#0A0A0A"/>
	<stop  offset="1" style="stop-color:#000000"/>
</linearGradient>
<path class="st22" d="M165.4,64c0,0.5-0.1,1-0.2,1.4c-0.6,2.5-2.8,4.4-5.4,4.7v0.7c0,0.3-0.2,0.6-0.6,0.6c0,0,0,0,0,0
	c-0.3,0-0.6-0.2-0.6-0.5c0,0,0,0,0,0v-0.7c-3.1-0.3-5.6-2.9-5.6-6.1c0-0.3,0-0.5,0.1-0.8c1-0.7,2.1-1.1,3.3-1.3
	c-1.1,1.5-0.8,3.7,0.7,4.8c0.4,0.3,0.9,0.5,1.5,0.6c0-0.3,0.3-0.5,0.6-0.5c0.3,0,0.5,0.2,0.6,0.5c1.7-0.3,2.9-1.7,2.9-3.4
	c0-0.4-0.1-0.8-0.2-1.2C163.4,63.2,164.3,63.5,165.4,64L165.4,64z"/>
<path class="st23" d="M132.3,118.8c-8.2,0-14.9,6.7-14.9,14.9c0,4,1.6,7.8,4.4,10.6v0c5.8,5.8,15.3,5.8,21.1,0v0
	c5.8-5.8,5.8-15.3,0-21.1C140.1,120.4,136.3,118.8,132.3,118.8z M132.3,142c-4.6,0-8.3-3.7-8.3-8.2c0-4.6,3.7-8.3,8.2-8.3
	c4.6,0,8.3,3.7,8.3,8.2c0,2.2-0.9,4.3-2.4,5.9C136.6,141.1,134.5,142,132.3,142z"/>
<path class="st6" d="M129.6,126.2v-6.7c-8.2,0-14.9,6.7-14.9,14.9c0,4,1.6,7.8,4.4,10.6l4.7-4.7c-1.6-1.5-2.4-3.6-2.4-5.8
	C121.3,129.9,125,126.2,129.6,126.2z"/>
<path class="st8" d="M144.5,134.5c0,4-1.6,7.8-4.4,10.6l-4.7-4.7c1.6-1.5,2.4-3.6,2.4-5.8c0-4.6-3.7-8.2-8.2-8.2v-6.7
	C137.8,119.6,144.5,126.2,144.5,134.5C144.5,134.5,144.5,134.5,144.5,134.5L144.5,134.5z"/>
<path class="st5" d="M140.1,145L140.1,145c-5.8,5.8-15.3,5.8-21.1,0v0l4.7-4.7c3.2,3.2,8.4,3.2,11.6,0c0,0,0,0,0,0L140.1,145z"/>
<path class="st24" d="M51.8,92.5l-3.4,0.1c0.5-2.6,1.3-5.2,2.1-7.8l1.8,0.3L51.8,92.5z M57.9,96.7V115c0,0.1,0,0.2,0,0.2
	c-0.4-4.4-0.4-8.9,0-13.3c-2-0.5-9.3-3-9.7-4.3C48,96.8,48,95.9,48,95.1l3.6-0.1l0,0.7L57.9,96.7z M66.9,92.2l-5.8,0.1
	c-0.3-0.8-0.5-1.6-0.6-2.5c-0.2-0.1-0.4-0.2-0.4-0.4c0,0-0.1-0.1-0.1-0.1c-0.5-0.7-0.5-1.6-0.2-2.4c0.6,0.3,1.2,0.4,1.9,0.3
	c0.5,0,1.1-0.1,1.6-0.3c1.1-0.3,2.4,1,3.1,1.5C67.4,89.3,67.7,90.9,66.9,92.2z M70.7,115.8l-5,0.3c-0.9,0.1-1.7-0.5-1.8-1.4
	c0,0,0-0.1,0-0.1V96.3c0-0.7,0.5-1.3,1.2-1.6c0.1,0.3,0.2,0.6,0.3,0.8c1.4,0,2.8,0.2,4.1,0.7C72,98.3,70.1,107.1,70.7,115.8z
	 M52.3,85c0,0,1.1-0.8,1-1.1s-0.5,0.1-0.7-0.1s1-0.8,0.6-1.4s-2.4-0.9-2.8,0c-0.4,0.8,0.2,2.2,0.2,2.2L52.3,85z"/>
<path class="st25" d="M126.5,93.3c2.5,2.2,1.9,9.8,1.9,11.7c-0.7,2.3-4.3,6.3-7.8,9.9l-1.2-1l5.8-8.7l-0.7-5.5
	c-0.1-0.9,0-1.8,0.4-2.7L126.5,93.3z"/>
<path class="st25" d="M126.5,93.3c2.5,2.2,1.9,9.8,1.9,11.7c-0.7,2.3-4.3,6.3-7.8,9.9l-1.2-1l5.8-8.7l-0.7-5.5
	c-0.1-0.9,0-1.8,0.4-2.7L126.5,93.3z"/>
<path class="st7" d="M122.5,113.4l-1.1,0.6l-1.3-1.2l0.2-1.2l0.4,0.3l1.6,1.2L122.5,113.4z"/>
<path class="st26" d="M128.4,104.9c-0.6,2-3.3,5.1-6.2,8.2l-1.5-1.2l4.6-6.8l-0.7-5.5c-0.1-0.9,0-1.9,0.4-2.7l1.6-3.5
	C129.1,95.5,128.4,103.1,128.4,104.9z"/>
<path class="st8" d="M128.8,105c-0.6,2-3.6,5.1-6.5,8.1l-1.5-1.2l4.1-6.8l-0.5-5.5c-0.1-0.9,0.1-1.9,0.5-2.7l1.8-3.5
	C129.1,95.5,128.8,103.2,128.8,105z"/>
<path class="st25" d="M119.4,113.8c-0.4-0.2-1,0.2-1.5,0.4c-0.9,0.5-1.5,0.8-1.5,1.1c0,0.4,0.3,0.3,0.8,0.2l2-0.1
	c0.7,0.4,1.5-0.4,1.4-0.6L119.4,113.8z M119.1,141.8c-0.3,0.6-4.9,1.6-4.9,1.6s1.3-1.7,2.1-2.7c-0.1-6.9-1.3-14.3-0.8-17.9
	c0.7-4.4,5.4-6.6,10.4-7.6l3.9,3.4c-0.4,4.7-3.4,3-9.6,4.9c-1,5.5-1.5,11.2-1.6,16.8C118.6,140.4,119.4,141.2,119.1,141.8z"/>
<path class="st27" d="M115.3,141.5c0,0-2.4,1.8-2.5,2.5s2.2,0.4,2.7,0.1s0.3-0.7,1.7-1.2c0.6-0.3,1.4,0,1.7,0.6
	c0,0.1,0.1,0.1,0.1,0.2c0.2,0,0.4,0,0.5-0.2c-0.2-0.4-0.2-1,0-1.4c0.4-0.6-0.1-1.6-0.6-1.6s-1.1,1.3-1.8,1.1
	S115.8,141.1,115.3,141.5L115.3,141.5z"/>
<path class="st25" d="M129.2,143.7c-0.2,0.7-4.5,2.6-4.5,2.6s0.9-1.9,1.5-3.1c-1.5-6.7-4.2-13.7-4.4-17.3c-0.2-4.5,4-7.6,8.7-9.5
	l4.5,2.6c0.5,4.7-2.8,3.6-8.4,6.7c0.2,5.6,0.8,11.2,1.9,16.8C128.5,142.4,129.4,143,129.2,143.7L129.2,143.7z"/>
<path class="st27" d="M125.5,144.2c0,0-1.9,2.3-1.9,3s2.2,0,2.6-0.4s0.1-0.7,1.4-1.5c0.6-0.4,1.3-0.3,1.7,0.3c0,0.1,0.1,0.1,0.1,0.2
	c0.2,0,0.4-0.1,0.4-0.3c-0.3-0.4-0.4-0.9-0.3-1.4c0.2-0.7-0.5-1.6-0.9-1.5s-0.8,1.5-1.6,1.4S125.9,143.7,125.5,144.2L125.5,144.2z"
	/>
<path class="st28" d="M116.5,119.2c-2.1,2.3,10.1,5.8,12,5.7c0.8,0,10-3.1,9.8-10c-0.9-1.6-5,1.5-6.6-1.5
	C123.5,113.4,120.6,115.9,116.5,119.2z"/>
<path class="st8" d="M138.6,114.9c-3.3,0.7-8.3,0.3-13.7-0.8c3.1-13.7-3.3-14.8,1.5-20.8c0.5-0.1,1-0.2,1.6-0.3
	c2.1-0.3,4.2-0.3,6.4,0c0.7,0.2,1.4,0.5,2,0.9C138.4,100.3,137.6,111.9,138.6,114.9L138.6,114.9z"/>
<path class="st7" d="M134.4,93C134.3,93,134.3,93,134.4,93c-1.7,0.5-4.4,7.4-4.4,7.4c-0.5-2.5-1.1-5-1.9-7.4
	C130.1,92.8,132.3,92.8,134.4,93L134.4,93z"/>
<path class="st25" d="M129.7,92.9c1.5-0.7,0.8-2,1-2l1.7-0.1c0.1,0.1-0.1,1.5,0.8,2.1C132.2,93.8,130.7,93.8,129.7,92.9L129.7,92.9z
	"/>
<path class="st25" d="M128,87.8c-0.2,0.9,1,3.7,1.9,4.3c0.8,0.4,1.9-0.8,2.8-1.3c0-1.5-0.3-3-0.9-4.3
	C130.2,86.5,128.8,86.9,128,87.8L128,87.8z"/>
<path class="st29" d="M127.4,88.7c1,0.5,2.1,0.2,2.9-0.5c0.6-0.9,1.2,0.2,1,1.1s-0.2,3.2,1.7,3.3c1.2,0,3.5-1.5,2.2-2
	s-1.8-0.8-1.3-2.1c0.5-1.2-0.7-3.3-1.6-3.7c-1.8-0.6-3.8-0.1-5,1.4C126.3,87.4,126.9,88.3,127.4,88.7z"/>
<path class="st25" d="M136.4,93.9c2.5,2.2,1.9,9.8,1.9,11.7c-0.7,2.3-4.3,6.3-7.8,9.9l-1.2-1l5.8-8.7l-0.9-6.9L136.4,93.9z"/>
<path class="st25" d="M136.4,93.9c2.5,2.2,1.9,9.8,1.9,11.7c-0.7,2.3-4.3,6.3-7.8,9.9l-1.2-1l5.8-8.7l-0.9-6.9L136.4,93.9z"/>
<path class="st7" d="M132.4,114l-1.1,0.6l-1.3-1.2l0.2-1.2l0.4,0.3l1.6,1.2L132.4,114z"/>
<path class="st26" d="M138.2,105.6c-0.6,2-3.3,5.1-6.2,8.2l-1.5-1.2l4.6-6.8l-0.9-7l2.2-4.8C138.9,96.2,138.2,103.8,138.2,105.6z"/>
<path class="st8" d="M138.6,105.7c-0.6,2-3.6,5.1-6.5,8.1l-1.5-1.2l4.1-6.8l-0.7-7l2.4-4.8C138.9,96.2,138.6,103.8,138.6,105.7z"/>
<path class="st25" d="M129.2,114.5c-0.4-0.2-1,0.2-1.5,0.4c-0.9,0.5-1.5,0.8-1.5,1.1c0,0.4,0.3,0.3,0.8,0.2l2-0.1
	c0.7,0.4,1.5-0.4,1.4-0.6L129.2,114.5z"/>
<path class="st7" d="M125.1,116.2h-10.5c-0.8,0-1.6-0.6-1.8-1.4l-1.7-6.9c-0.2-0.6,0.2-1.2,0.7-1.3c0.1,0,0.3-0.1,0.4,0h10.5
	c0.8,0,1.6,0.6,1.8,1.4l1.7,6.9c0.2,0.6-0.2,1.2-0.7,1.3C125.4,116.2,125.2,116.2,125.1,116.2z"/>
<path class="st30" d="M115.5,116.2h15.1c0.5,0,0.9,0.4,0.9,0.9v0v0.1c0,0.5-0.4,0.9-0.9,0.9l0,0h-15.1c-0.5,0-0.9-0.4-0.9-0.9v-0.1
	C114.6,116.6,115,116.2,115.5,116.2z"/>
<path class="st7" d="M131.5,117.1L131.5,117.1c0,0.6-0.4,0.9-0.9,0.9c0,0,0,0,0,0h-6.1c-0.5,0-0.9-0.4-0.9-0.9c0,0,0,0,0,0v-0.1
	c0-0.5,0.4-0.9,0.9-0.9c0,0,0,0,0,0h6.1C131.1,116.2,131.5,116.6,131.5,117.1C131.5,117.1,131.5,117.1,131.5,117.1z"/>
<path class="st26" d="M119.8,111.4c0.2,0.6-0.1,1.2-0.7,1.4c-0.1,0-0.3,0.1-0.4,0.1c-0.9,0-1.6-0.6-1.8-1.5
	c-0.2-0.6,0.1-1.2,0.7-1.4c0.1,0,0.3-0.1,0.4-0.1C118.8,110,119.5,110.6,119.8,111.4z"/>
<path class="st24" d="M120.2,123.6c-1,5.6-1.5,11.2-1.6,16.8c0,0,0.1,0.1,0.1,0.1h0c0.5,0,1,1,0.6,1.6c-0.2,0.5-0.2,1,0,1.4
	c-0.1,0.2-0.3,0.3-0.5,0.2c-0.2-0.7-0.8-1.1-1.5-0.9c-0.1,0-0.1,0-0.2,0.1c-1.4,0.5-1.2,0.8-1.7,1.2c-0.5,0.3-2.8,0.6-2.7-0.1
	c0.3-0.5,0.7-1,1.2-1.4c0.2,0.1,0.4,0.1,0.6,0.2c0.8,0.2,1.5,0.1,2.2-0.3c0.6-0.3,1-0.9,1.2-1.5c0,0,0,0,0,0c0,0,0,0,0,0
	c0.4-1.3,0.4-2.8,0-4.1c-0.7-3.1-0.7-13.9,1.3-14.6c0,0,0.1,0,0.3,0.1c0.1,0,0.2,0.1,0.3,0.1c0.5,0.2,1.1,0.5,1.7,0.7l0,0
	C121.2,123.3,120.7,123.4,120.2,123.6z M138.6,114.9c-0.1,0-0.2,0-0.3,0.1c0.3,6.9-9,10-9.8,10c-0.2,0-0.3,0-0.5-0.1
	c-0.5,0.2-0.9,0.5-1.4,0.7c0.2,5.6,0.8,11.2,1.9,16.8c0,0,0.1,0.1,0.1,0.1c0,0,0,0,0,0c0.5-0.1,1.2,0.8,0.9,1.5
	c-0.1,0.5,0,1,0.3,1.4c-0.1,0.2-0.2,0.3-0.4,0.3c-0.3-0.6-1.1-0.9-1.7-0.6c-0.1,0-0.1,0.1-0.2,0.1c-1.3,0.8-1,1.1-1.4,1.5
	c-0.4,0.4-2.6,1.1-2.6,0.4c0.1-0.5,0.4-1,0.7-1.4c0.3,0,0.5-0.1,0.8-0.2c1.5-0.4,3.2-1.2,3.3-1.9c0-0.3-0.1-0.5-0.1-0.8
	c-0.5-2.1-2.3-7.1-2.5-9c-0.2-1.9-0.9-7.6-0.2-9.5c0.1-0.2,0.2-0.4,0.4-0.6c1.3-0.8,5.4-1.8,7.5-4.1c0.4-0.4,0.6-0.9,0.5-1.5
	c-0.4-1.6-3.3-2.8-3.2-3.1v0l0.1-0.1l0,0c0.2-0.2,0.5-0.4,0.8-0.6c0.2-0.1,0.4-0.2,0.6-0.3c0,0,0.1-0.1,0.2-0.1c0.5-0.2,0-0.7,1-1.4
	c0.9-0.6,3.7-4.3,4.5-5.7C138.1,110.6,138.1,113.6,138.6,114.9L138.6,114.9z M133.8,99.1l0.8,6.3c0,2.3-2.2,4.6-3.9,7
	c1.5-2.2,2.4-4.6,2.9-7.2C133.8,103.2,133.9,101.1,133.8,99.1z"/>
<path class="st25" d="M146.2,146.1c0.1,0.8-0.2,1.7-0.7,2.3c1.3,0.6,2.8,0.4,3.9-0.5c-0.5-0.6-0.8-1.3-0.8-2.1L146.2,146.1z"/>
<path class="st7" d="M145.9,146.4c1.1,0.5,2.3,0.5,3.4,0c0.3-5.3,0.2-12,0.5-16.9c0.9-4.7,4.2-11.5,4.2-17.5l-7.8,0.8
	c-2.2,6.3-2.1,12.8-1.8,17.6L145.9,146.4z M145.5,148.4c-1.6,0.9-4.1,2-3.2,2.6c2.6,0,5.1-0.4,7.6-1.3c0.3-0.7,0-1.9-0.5-1.9
	C148.2,148.5,146.8,148.6,145.5,148.4L145.5,148.4z"/>
<path class="st25" d="M158.2,146.1c0.3,0.8,0.2,1.6-0.2,2.3c1.4,0.3,2.8-0.2,3.6-1.3c-0.6-0.4-1.1-1.1-1.2-1.9L158.2,146.1z"/>
<path class="st7" d="M157.8,146.1c1.2,0.3,2.4,0,3.4-0.7c-0.8-5.2-2.3-11.8-2.9-16.6c-0.1-4.7,1.8-12.1,0.5-18l-7.4,2.4
	c-0.7,6-0.1,12,1.7,17.8L157.8,146.1z M158,148.4c-1.4,1.2-3.5,2.7-2.5,3.1c2.5-0.5,4.8-1.4,7-2.7c0.2-0.8-0.4-1.8-0.9-1.7
	C160.6,147.9,159.3,148.4,158,148.4z"/>
<path class="st28" d="M159.6,113.6c-2.7,1.2-6.1,1-9.7,0.2c-1.1-0.2-2.2-0.5-3.3-0.8c-1-4.9-0.4-12.7,0.5-20.7
	c4.1-0.6,9.7-0.7,12.6,0.6c0.2,1.4,0.4,2.9,0.5,4.5v0C160.4,103,160.4,109.4,159.6,113.6z"/>
<path class="st24" d="M159.6,113.6c-2.7,1.2-6.1,1-9.7,0.2c0.8-1.2,3.7-3,6.1-4.2c3.7-1.9,3.6-7.9,4.2-12.1
	C160.4,103,160.4,109.4,159.6,113.6z"/>
<path class="st25" d="M151.9,91.9c0.9-0.5,0.8-1.3,1.1-2.8l2.3-0.4c-0.1,1.2,0.1,2.3,0.7,3.4C155.9,94.3,151.1,94.3,151.9,91.9z"/>
<path class="st25" d="M151.8,90.7c0.5,0.9,2.9-0.2,4.3-1l0.5-5.7h-5.7C150.5,86.3,150.8,88.6,151.8,90.7L151.8,90.7z"/>
<path class="st28" d="M147,92.4c-1.7,1-3.9,6.4-4.4,7.5c-1.8,1.3-6.1,2.5-10.4,3.9l0.5,1.9c5.2-1.1,10.3-1.5,12.6-3
	c1.7-1.3,2.8-5.2,2.8-5.2L147,92.4z"/>
<path class="st8" d="M166.1,107.8l-4.5,1.3l-4.6,1.4l-0.8,0.2l0,0l-1.4,0.4h0l-0.6,0.2l-0.9,0.3l-0.1,0l-5.8,1.7
	c-1.1,0.3-2.4-0.3-2.7-1.5l-1.2-4c-0.3-1.1,0.3-2.4,1.5-2.7c0,0,0,0,0,0l15.4-4.6l3.4-1c0.1,0,0.3-0.1,0.5-0.1c0,0,0,0,0.1,0
	c0.4,0,0.8,0.1,1.2,0.3c0.5,0.3,0.9,0.7,1,1.3l1.2,4C167.9,106.2,167.3,107.4,166.1,107.8z"/>
<path class="st7" d="M145.8,107.1l4.8-1.4c0.1,0,0.3,0,0.3,0.2l0.5,1.7c0,0.1,0,0.3-0.2,0.3l0,0l-4.8,1.4c-0.1,0-0.3,0-0.3-0.2l0,0
	l-0.5-1.7C145.6,107.2,145.7,107.1,145.8,107.1L145.8,107.1z"/>
<path class="st7" d="M146.5,110.5l19.2-5.8c0.1,0,0.2,0,0.2,0.1c0,0,0,0,0,0l0.4,1.3c0,0.1,0,0.2-0.1,0.2l0,0l-19.2,5.8
	c-0.1,0-0.2,0-0.2-0.1c0,0,0,0,0,0l-0.4-1.3C146.3,110.7,146.4,110.5,146.5,110.5L146.5,110.5z"/>
<path class="st28" d="M164.3,100.6c-0.5,1.5-1.9,3.5-3.8,5.7l0,0c-0.6,0.7-1.3,1.5-2,2.4l0,0c-0.5,0.6-1,1.2-1.5,1.8
	c-0.1,0.2-0.3,0.4-0.4,0.5l-0.1-0.1l-0.3-0.2l-0.3-0.2l-0.8-0.5h0l-0.1-0.1c0-0.1,0.1-0.1,0.1-0.2c0.4-0.7,0.9-1.5,1.3-2.2v0
	c1.5-2.2,2.8-4.5,3.9-6.9c0-0.1,0.1-0.3,0.1-0.4c-0.1-1.2-2.6-3.4-3-5.1l2.1-2.1c0,0,3.7,3.9,4.6,6.4c0,0,0,0.1,0,0.1
	C164.3,99.9,164.4,100.3,164.3,100.6L164.3,100.6z"/>
<path class="st25" d="M156.5,110.9L156.5,110.9c-0.3,0.6-0.2,0.4-1.1,0.9c-0.6,0.3-1.3,0.3-2,0.3c-0.1,0-0.3,0-0.3-0.2c0,0,0,0,0,0
	c0-0.1,0-0.2,0.1-0.2l0,0l0.1,0l0.9-0.2c0,0,0.1-0.1,0.1-0.1c0.9-1-2.3-0.9,1-1.4h0l0.8,0.5l0.3,0.2L156.5,110.9z"/>
<path class="st29" d="M150.5,86.2c0.8,1,2.2,1.2,3.1,0.4c0,0,0,0,0,0c0.8-0.5,0.4,1.5,0,1.9l0.5,0.2l0.6-1c0.4-0.1,0.7,0.1,0.6,0.8
	l-0.7,0.9c0,0.4,0.2,0.7,0.5,1l1.6-0.8c0.6-1.4,1-2.9,1.1-4.4c-0.4-0.9-0.9-1.8-1.6-2.6c-1.3-0.4-2.7-0.5-4.1-0.4
	c-0.8,0.4-1.5,1.1-1.8,2C150.1,84.7,150.1,85.5,150.5,86.2z"/>
<path class="st24" d="M165.4,99.8c0,0.6-1,3.1-2.1,5.7c-0.3,0.7-0.6,1.4-0.9,2c-0.2,0.5-0.5,1.1-0.7,1.6l-4.6,1.4
	c-0.1,0.2-0.3,0.4-0.4,0.5l-0.1-0.1c-0.3,0.6-0.2,0.4-1.1,0.9c-0.6,0.3-1.3,0.3-2,0.3c-0.1,0-0.3,0-0.3-0.2c0,0,0,0,0,0
	c0.4-0.2,1-0.4,1.7-0.7h0c0.4-0.2,0.8-0.4,1.1-0.6c0,0,0,0,0,0c0,0,0,0,0,0c0.6-0.5,1.2-1,1.8-1.6c0.7-0.8,1.4-1.6,2.1-2.4
	c1.7-2.1,3.2-4.5,4.3-7c0,0,0-0.1,0-0.1c0,0,0,0.1,0,0.1C164.6,99.5,165,99.6,165.4,99.8L165.4,99.8z M162.5,148.8
	c-2.1,1.3-4.5,2.2-6.9,2.7c-0.8-0.3,0.1-1.1,1.2-2c0.9-0.1,1.9-0.1,2.7-0.1c0.8-0.1,1.3-0.4,1.3-1.5c0-0.1,0-0.1,0-0.2
	c0-0.6-0.2-1.3-0.4-1.9c-0.1-0.1-0.1-0.3-0.1-0.5c-0.4-1.4-1.2-3.3-2.3-6c-3.6-8.6-3-14.8-1-24.9c0.7-0.1,1.5-0.3,2.1-0.6
	c0.3,5.2-1,11-0.9,15c0.6,4.8,2.1,11.4,2.9,16.6c-0.2,0.1-0.4,0.3-0.6,0.4c0.2,0.6,0.6,1,1,1.4C162.1,147,162.7,148,162.5,148.8z
	 M149.3,146.3c-0.2,0.1-0.4,0.2-0.6,0.2c0.1,0.5,0.3,1,0.7,1.3c0.5,0,0.8,1.1,0.5,1.9c-2.4,0.8-5,1.3-7.6,1.3
	c-0.6-0.4,0.1-0.9,1.2-1.5h0c0.3,0.1,0.6,0.1,0.8,0.1c1.7,0.5,3.1,0,3.6-1c0.1-0.1,0.1-0.1,0.1-0.2c0,0,0,0,0,0
	c0.2-0.5,0.3-1.1,0.1-1.6v0c-0.1-0.2-0.1-0.5-0.1-0.8c-0.3-5.8-0.1-11.6,0.4-17.3c0.7-5,2.4-6.9,2.4-6.9l0.4,2.3v0
	c-0.7,1.8-1.2,3.7-1.6,5.6C149.5,134.3,149.6,141.1,149.3,146.3L149.3,146.3z"/>
<path class="st25" d="M132.2,103.9l-2.2-0.4l-3.2,2c-0.7,0.3-0.5,0.9,0.3,0.6l2.2-0.7c0.5,0.6,1.2,1.1,2,1.2l1.5-0.7L132.2,103.9z
	 M58.1,145.7c0.1,0.4,0.1,0.8-0.1,1.2c-0.2,0.7,3.3,0.9,3.3,0.9c0.1-0.6,0-1.3-0.4-1.8c-0.3-0.4-0.5-0.9-0.6-1.4L58.1,145.7z"/>
<path class="st31" d="M63.5,111.6c-0.6,8.7-3.6,12-3.6,15.3c0,3.4,1.2,18.1,1.2,18.1c-0.4,0.6-2.8,0.9-3.6,0.6
	c-1.7-8.3-3.3-17.7-3.2-20.6c0.2-4.8,1.1-9.5,2.6-14.1L63.5,111.6z M61.5,147.1c0.5,0.7,0.6,1.6,0.2,2.3c-2.7,0-5.4,0.1-7.9,0
	c0-1,2.6-2.3,4.1-2.7C59,147.4,60.3,147.6,61.5,147.1z"/>
<path class="st25" d="M69.1,144.4c0.2,0.4,0.2,0.8,0.1,1.2c-0.1,0.7,3.4,0.2,3.4,0.2c0-0.6-0.3-1.2-0.7-1.7
	c-0.4-0.3-0.7-0.8-0.9-1.3L69.1,144.4z"/>
<path class="st31" d="M67.4,109.9c1.2,8.7-1.1,12.4-0.4,15.7c0.7,3.3,4.8,17.5,4.8,17.5c-0.3,0.6-2.6,1.5-3.4,1.3
	c-3.4-7.7-6.9-16.7-7.4-19.5c-0.8-4.7-0.9-9.6-0.3-14.3L67.4,109.9z M72.7,145.1c0.6,0.6,0.9,1.4,0.7,2.2c-2.7,0.6-5.3,1.2-7.8,1.6
	c-0.2-1,2.1-2.8,3.4-3.5C70.3,145.9,71.7,145.7,72.7,145.1z"/>
<path class="st7" d="M55.8,114.2c1.2,0.5,2.5,0.8,3.8,0.8c3.4,0.2,7.6-0.4,8.7-1.5c-0.7-8.8,1.4-17.9-1.2-20c-2.2-1.2-7.8-1-11,0.5
	c-0.1,0-0.2,0.1-0.3,0.1c-0.1,1.1-0.2,2.3-0.2,3.4c0,0.6-0.1,1.1-0.1,1.6C55.2,105.1,55.1,110.6,55.8,114.2z"/>
<path class="st25" d="M63.1,93c-0.4-0.8-0.6-1.7-0.6-2.5h-2c0.1,0.9,0,1.9-0.3,2.8C60.5,93.6,62.9,93.5,63.1,93z"/>
<path class="st25" d="M63.3,91.1c-1.3,0.6-2.6,1.2-3.4,0.6c-0.9-1-1.7-4.2-1.8-6l5.1-0.4L63.3,91.1z"/>
<path class="st29" d="M63.7,90.6c-0.6,0.5,0.2,1.1-1.6,1.3c-0.9,0-1.7-0.7-1.7-1.6c0-0.1,0-0.2,0-0.3c0.5-0.4,1.2-0.8,1.2-1.2
	c0.1-0.4-0.2-0.6-0.5-0.7c-0.3,0.2-0.5,0.5-0.6,0.8l-0.4-0.5l0.3-1.3c-1.1,0.1-2.2,0.2-2.5-0.5c-0.5-0.7-0.6-1.7-0.3-2.5
	c1.1,0.5,2.3,0.5,3.4,0c1.1-0.3,2.3,1,3.1,1.5C65.3,86.6,65.5,88.9,63.7,90.6z"/>
<path class="st24" d="M54.1,148.8c1.9,0.3,3.9-0.2,5.5-1.2l0,0c0.1-0.1,0.1-0.1,0.1-0.2c0.1-0.6,0.1-1.2-0.1-1.8
	c0-0.2-0.1-0.4-0.1-0.6c-1.2-3.8-2.2-7.7-3-11.6c-1.3-7.7,0.3-14.8,3.1-18.3c0,0-0.1,0-0.1,0c-0.7,0-1.4-0.1-2-0.2
	c-0.6-0.1-1.1-0.3-1.7-0.6c-0.9,3.5-1.5,7.2-1.6,10.8c-0.1,2.8,1.5,12.3,3.2,20.6c0.2,0.1,0.4,0.1,0.6,0.1c0.1,0.4,0.1,0.8-0.1,1.2
	c-0.1,0-0.1-0.1-0.2-0.1C56.5,147.2,55.2,147.9,54.1,148.8z M60.9,123.6L60.9,123.6c0.1,0.5,0.1,0.9,0.2,1.3
	c0.5,2.8,4,11.7,7.4,19.5c0.2,0,0.5,0,0.7,0c0.1,0.4,0.2,0.8,0.1,1.1c-0.1,0-0.1,0-0.2-0.1c-1.3,0.7-2.4,1.6-3.2,2.7
	c1.8-0.3,4.4-1.3,5-2.3c0.1-0.2,0.1-0.4,0.1-0.6c-0.1-0.2-0.3-0.6-0.5-1.2c-0.1-0.2-0.1-0.3-0.2-0.5c-1.8-4.3-6.2-14.7-7-17.6
	c-0.9-3.2-1-4.9,0-7.3C62.1,120.2,61.4,121.9,60.9,123.6z"/>
<path class="st7" d="M45.9,94.8c0.4,1.3,7.7,3.8,9.7,4.3l0.2-1.6l0.4-3.5v0l-6.9-1.1L50,82.3l-1.8-0.3c-1.1,3-1.9,6.1-2.4,9.3v0
	C45.6,92.4,45.6,93.7,45.9,94.8z"/>
<path class="st25" d="M48.2,81.9c0,0-0.7-1.4-0.2-2.2c0.5-0.9,2.5-0.5,2.8,0s-0.8,1.2-0.6,1.4s0.6-0.2,0.7,0.1s-1,1.1-1,1.1
	L48.2,81.9z"/>
<path class="st24" d="M45.9,94.8c0.4,1.3,7.7,3.8,9.7,4.3c-0.3,6-0.4,11.4,0.3,15c1.2,0.5,2.5,0.8,3.8,0.8c0-0.1,0.1-0.1,0.1-0.2
	c0.6-1.7,0.4-3.5-0.5-5.1c-0.4-0.6-0.9-1.2-1.2-1.8c-1.7-2.7-1.5-6.1-0.6-9.2c0.2-0.5,0.4-1.1,0.9-1.1c-0.9,0.1-1.8,0.1-2.7-0.1
	c0,0-0.1,0-0.1,0c-0.9-0.1-1.8-0.3-2.7-0.6c-1.6-0.4-3.1-1-4.5-2c-1.2-0.9-2.1-2.1-2.6-3.4c0-0.1-0.1-0.2-0.1-0.3
	C45.6,92.4,45.6,93.7,45.9,94.8z"/>
</svg>
